<?xml version="1.0" standalone="no"?>
<!DOCTYPE svg PUBLIC "-//W3C//DTD SVG 1.1//EN" "http://www.w3.org/Graphics/SVG/1.1/DTD/svg11.dtd">
<svg xmlns="http://www.w3.org/2000/svg" id="Livello_1" data-name="Livello 1" viewBox="0 0 958.27 958.27" width="958.27001953125" height="958.27001953125">
  <defs>
    <style>
      .cls-1 {
        fill: #ffec04;
      }

      .cls-2 {
        fill: #c6252d;
      }

      .cls-3 {
        fill: #ffec00;
      }
    </style>
  </defs>
  <circle class="cls-2" cx="479.13" cy="479.13" r="479.13"/>
  <g>
    <path class="cls-3" d="M378.11,331.06c-20.06-24.24-39.82-48.32-59.83-72.19-9.1-10.86-9.15-15.07,1.08-25.35,1.66-1.67,3.29-3.37,5.06-4.92,13.96-12.21,22.59-11.22,33.03,3.96,16.47,23.96,32.83,48.01,48.88,71.5,15.46-5.76,30.17-12.42,45.55-16.55,10.48-2.82,21.92-2.82,32.9-2.61,4.45.09,10.05,3.06,12.93,6.54,4.37,5.26,9.12,6.07,15.21,6.1,5.83.03,11.74.91,17.47,2.12,30.82,6.5,47.49,27.01,49.14,60.11,2.2,43.99-15.57,73.86-56.14,91.37-38.59,16.66-78.63,19.66-118.73,6.26-11.93-3.99-23.73-10.88-33.24-19.14-30.2-26.25-29.54-74.72.25-101.62,1.92-1.74,3.91-3.4,6.42-5.57ZM441.46,334.57c-14.08,5.04-32.57,17.94-41.89,29.55-21.35,26.61-11.24,54.53,22.16,61.15,2.01.4,4.07.6,6.12.72,34.47,1.9,61.74-13.79,86.39-35.62,11.66-10.33,17.29-23.12,16.37-39.13-1.03-17.78-10.3-23.79-25.35-14.47-10.71,6.63-20.71,14.49-30.52,22.43-4.1,3.32-7.15,3.61-10.5.06-7.59-8.04-15.01-16.24-22.77-24.67Z"/>
    <path class="cls-3" d="M499.54,272.66c-10.85-.03-26.91-11.03-28.38-18.3-.67-3.34.34-7.71,2.13-10.69,2.83-4.72,6.67-8.94,10.57-12.89,13.44-13.57,26.99-27.03,40.74-40.3,4.62-4.46,9.74-8.49,15-12.2,5.33-3.77,11-3.65,16.34.43.47.36.94.71,1.41,1.05,19.57,14.27,19.19,22.19,1.06,38.28-17.11,15.19-32.7,32.08-49.2,47.97-3.38,3.26-7.83,5.42-9.66,6.65Z"/>
    <path class="cls-3" d="M662.63,479.22c-2.77-1.52-9.12-3.36-13.11-7.48-14.44-14.95-28.27-30.51-41.94-46.19-5.15-5.9-6.29-13.08-2.74-20.56,7.17-15.17,16.54-16.55,28.41-4.69,17.22,17.2,34.83,34.01,52.09,51.17,1.85,1.84,3.55,5.01,3.4,7.45-.5,8.32-14.46,20.29-26.11,20.29Z"/>
    <path class="cls-3" d="M641,276.82c15.54,0,31.12-.73,46.59.23,12.09.75,13.8,6.05,6.78,16.25-5.76,8.37-13.61,15.19-23.44,15.65-23.61,1.08-47.37,1.45-70.91-.2-7.19-.51-15-7.48-20.44-13.4-6.21-6.75-3.53-13.41,5.44-15.78,6.71-1.78,13.83-2.42,20.8-2.66,11.71-.41,23.45-.11,35.18-.11,0,0,0,.02,0,.03Z"/>
    <path class="cls-3" d="M307.87,430.42c12.61,0,25.23-.15,37.83.05,11.02.17,17.77,8.18,18.47,21.37.45,8.57-4.55,14.3-16,14.64-19.89.59-39.85.26-59.74-.67-14.95-.7-22.3-11.59-27.39-24.1-2.98-7.34-.82-10.5,7.2-10.63,13.2-.23,26.42-.06,39.62-.06,0-.2,0-.4,0-.59Z"/>
    <path class="cls-3" d="M500.98,501.53c-1.45,3.04-2.42,7.37-5.04,10.14-8.65,9.13-17.4,18.29-27.04,26.32-10.3,8.57-20.2,5.42-32.02-8.69-6.97-8.32-5.87-15.31,3.47-24.37,8.39-8.14,16.64-16.41,24.78-24.8,4.71-4.85,9.89-6.24,15.79-2.8,9.24,5.38,17.66,11.57,20.06,24.19Z"/>
  </g>
  <g>
    <path class="cls-3" d="M206.04,576.55h27.37v52.88c0,5.24-.82,10.2-2.45,14.85-1.63,4.66-4.2,8.73-7.69,12.22-3.49,3.49-7.15,5.94-10.99,7.35-5.33,1.98-11.73,2.96-19.19,2.96-4.32,0-9.03-.3-14.14-.91-5.11-.61-9.38-1.8-12.81-3.6-3.43-1.79-6.57-4.35-9.42-7.65-2.85-3.31-4.79-6.72-5.84-10.23-1.7-5.65-2.54-10.65-2.54-15.01v-52.88h27.37v54.14c0,4.84,1.34,8.62,4.03,11.34,2.68,2.72,6.41,4.08,11.17,4.08s8.43-1.34,11.11-4.02c2.68-2.68,4.03-6.48,4.03-11.4v-54.14Z"/>
    <path class="cls-3" d="M251.93,576.55h40.75c8.03,0,14.52,1.09,19.47,3.27,4.94,2.18,9.03,5.31,12.26,9.38,3.23,4.08,5.57,8.82,7.02,14.23,1.45,5.41,2.18,11.14,2.18,17.2,0,9.49-1.08,16.84-3.24,22.07-2.16,5.23-5.16,9.61-8.99,13.14-3.84,3.53-7.95,5.88-12.35,7.05-6.02,1.62-11.46,2.42-16.35,2.42h-40.75v-88.76ZM279.36,596.65v48.5h6.72c5.73,0,9.81-.64,12.23-1.91s4.32-3.49,5.69-6.66c1.37-3.17,2.06-8.3,2.06-15.41,0-9.4-1.53-15.84-4.6-19.31-3.07-3.47-8.15-5.21-15.26-5.21h-6.84Z"/>
    <path class="cls-3" d="M405.78,576.55h27.37v52.88c0,5.24-.82,10.2-2.45,14.85-1.63,4.66-4.2,8.73-7.69,12.22-3.49,3.49-7.15,5.94-10.99,7.35-5.33,1.98-11.73,2.96-19.19,2.96-4.32,0-9.03-.3-14.14-.91-5.11-.61-9.38-1.8-12.81-3.6-3.43-1.79-6.57-4.35-9.42-7.65-2.85-3.31-4.79-6.72-5.84-10.23-1.7-5.65-2.54-10.65-2.54-15.01v-52.88h27.37v54.14c0,4.84,1.34,8.62,4.03,11.34,2.68,2.72,6.41,4.08,11.17,4.08s8.43-1.34,11.11-4.02c2.68-2.68,4.03-6.48,4.03-11.4v-54.14Z"/>
    <path class="cls-3" d="M492.73,576.55h51.34c8.56,0,15.13,2.12,19.71,6.36,4.58,4.24,6.87,9.49,6.87,15.74,0,5.25-1.63,9.75-4.9,13.5-2.18,2.5-5.37,4.48-9.57,5.93,6.38,1.53,11.07,4.17,14.08,7.9,3.01,3.73,4.51,8.43,4.51,14.08,0,4.6-1.07,8.74-3.21,12.41-2.14,3.67-5.07,6.58-8.78,8.72-2.3,1.33-5.77,2.3-10.41,2.91-6.18.81-10.27,1.21-12.29,1.21h-47.35v-88.76ZM520.4,611.37h11.93c4.28,0,7.25-.74,8.93-2.21,1.67-1.47,2.51-3.6,2.51-6.39,0-2.58-.84-4.6-2.51-6.05-1.68-1.45-4.59-2.18-8.75-2.18h-12.11v16.83ZM520.4,646.24h13.99c4.72,0,8.05-.84,9.99-2.51,1.94-1.67,2.91-3.92,2.91-6.75,0-2.62-.96-4.73-2.88-6.33-1.92-1.59-5.28-2.39-10.08-2.39h-13.93v17.98Z"/>
    <path class="cls-3" d="M641.57,650.66h-31.14l-4.33,14.65h-28l33.36-88.76h29.92l33.35,88.76h-28.72l-4.44-14.65ZM635.88,631.47l-9.8-31.91-9.7,31.91h19.49Z"/>
    <path class="cls-3" d="M683.81,665.31v-88.76h45.71c8.48,0,14.96.73,19.44,2.18s8.09,4.15,10.84,8.08c2.74,3.94,4.12,8.73,4.12,14.38,0,4.92-1.05,9.17-3.15,12.75s-4.99,6.47-8.66,8.69c-2.34,1.41-5.55,2.58-9.63,3.51,3.27,1.09,5.65,2.18,7.14,3.27,1.01.73,2.47,2.28,4.39,4.67,1.92,2.38,3.2,4.22,3.84,5.51l13.28,25.72h-30.99l-14.66-27.12c-1.86-3.51-3.51-5.79-4.96-6.84-1.98-1.37-4.22-2.06-6.72-2.06h-2.42v36.03h-27.55ZM711.36,612.52h11.56c1.25,0,3.67-.4,7.27-1.21,1.82-.36,3.3-1.29,4.45-2.79,1.15-1.49,1.73-3.21,1.73-5.15,0-2.87-.91-5.07-2.72-6.6-1.82-1.53-5.23-2.3-10.23-2.3h-12.05v18.04Z"/>
    <path class="cls-3" d="M780.99,576.55h27.49v88.76h-27.49v-88.76Z"/>
  </g>
  <g>
    <path class="cls-3" d="M152.01,169.22l4.43-4.61,20.33,19.53c3.54,3.4,5.97,6.49,7.29,9.28,1.32,2.79,1.64,5.85.96,9.17-.68,3.32-2.63,6.66-5.86,10.02-3.13,3.26-6.27,5.39-9.4,6.37-3.13.98-6.2.89-9.2-.29-3-1.18-6.37-3.56-10.1-7.14l-20.33-19.53,4.43-4.61,20.31,19.51c3.06,2.94,5.58,4.82,7.57,5.65,1.99.83,4.03.93,6.13.32,2.1-.62,4.1-1.92,6-3.9,3.26-3.39,4.8-6.55,4.63-9.48-.17-2.93-2.46-6.52-6.88-10.76l-20.31-19.51Z"/>
    <path class="cls-3" d="M198.15,192.58l-22.95-26.89,4.06-3.46,3.26,3.82c-.57-4.62,1-8.51,4.69-11.66,1.6-1.37,3.33-2.34,5.17-2.9,1.84-.57,3.5-.66,4.98-.29,1.47.38,2.9,1.1,4.28,2.17.89.7,2.23,2.11,4.03,4.22l14.11,16.53-4.51,3.85-13.96-16.36c-1.58-1.86-2.94-3.1-4.08-3.72-1.14-.62-2.38-.82-3.75-.61-1.36.21-2.64.83-3.85,1.86-1.92,1.64-3.05,3.67-3.4,6.09-.34,2.42.95,5.36,3.89,8.8l12.53,14.69-4.51,3.85Z"/>
    <path class="cls-3" d="M201.32,135.66l-4.15-5.5,4.74-3.57,4.15,5.5-4.74,3.57ZM226.55,169.13l-21.27-28.23,4.74-3.57,21.27,28.23-4.74,3.57Z"/>
    <path class="cls-3" d="M226.28,146.95c-3.61-5.46-4.79-10.49-3.53-15.11,1.06-3.84,3.4-6.96,7.01-9.35,4.01-2.66,8.17-3.5,12.47-2.53,4.3.97,8.01,3.79,11.11,8.47,2.51,3.79,3.92,7.15,4.24,10.07.31,2.92-.21,5.69-1.56,8.32-1.36,2.63-3.31,4.78-5.85,6.47-4.08,2.7-8.26,3.57-12.53,2.59-4.27-.98-8.05-3.96-11.35-8.93ZM231.37,143.58c2.5,3.77,5.19,6.06,8.06,6.86,2.87.8,5.55.38,8.02-1.26,2.45-1.62,3.87-3.92,4.25-6.89.38-2.97-.71-6.38-3.27-10.25-2.41-3.64-5.06-5.86-7.94-6.66-2.88-.79-5.54-.38-7.98,1.23-2.47,1.64-3.9,3.93-4.3,6.88-.39,2.95.66,6.31,3.16,10.08Z"/>
    <path class="cls-3" d="M268.48,140.61l-16.87-31.06,4.69-2.55,2.4,4.42c.4-4.64,2.74-8.12,7.01-10.43,1.85-1.01,3.74-1.6,5.66-1.77,1.92-.17,3.56.08,4.93.75,1.37.67,2.61,1.68,3.73,3.01.72.87,1.75,2.52,3.07,4.96l10.38,19.1-5.21,2.83-10.26-18.89c-1.17-2.15-2.24-3.64-3.22-4.48-.98-.84-2.16-1.3-3.54-1.37-1.38-.07-2.76.27-4.15,1.02-2.22,1.21-3.75,2.96-4.59,5.26s-.18,5.44,1.98,9.42l9.22,16.96-5.21,2.83Z"/>
    <path class="cls-3" d="M318.18,103.5l5.93-1.74c.55,3.7.03,6.99-1.57,9.86-1.6,2.87-4.27,5.12-7.99,6.74-4.69,2.04-9.05,2.19-13.07.47-4.02-1.73-7.17-5.23-9.46-10.5-2.37-5.45-2.82-10.29-1.35-14.51,1.47-4.22,4.42-7.29,8.86-9.22,4.29-1.86,8.44-1.91,12.44-.14,4,1.77,7.17,5.33,9.49,10.69.14.33.34.82.61,1.48l-23.94,10.39c1.75,3.48,3.93,5.77,6.55,6.88,2.61,1.11,5.26,1.09,7.94-.07,1.99-.87,3.47-2.13,4.42-3.81.95-1.67,1.33-3.85,1.15-6.52ZM296.46,102.37l17.92-7.78c-1.43-2.62-3-4.37-4.72-5.24-2.65-1.36-5.36-1.45-8.12-.25-2.5,1.09-4.23,2.84-5.2,5.27-.97,2.43-.93,5.1.12,8Z"/>
    <path class="cls-3" d="M373.4,97.08l-1.22-4.29c-1.17,3.98-3.83,6.56-7.97,7.74-2.68.76-5.36.72-8.04-.14-2.67-.85-5.01-2.44-7.01-4.77-2-2.33-3.49-5.23-4.48-8.71-.97-3.39-1.28-6.63-.95-9.71.33-3.08,1.41-5.68,3.23-7.79,1.82-2.11,4.11-3.56,6.88-4.35,2.03-.58,3.96-.66,5.79-.25s3.44,1.17,4.83,2.28l-4.79-16.84,5.67-1.61,13.36,46.93-5.29,1.51ZM350.54,85.24c1.24,4.35,3.07,7.35,5.5,8.99,2.43,1.64,4.88,2.11,7.35,1.4,2.49-.71,4.32-2.34,5.47-4.9,1.16-2.56,1.13-5.95-.07-10.17-1.32-4.65-3.18-7.82-5.58-9.49-2.39-1.67-4.89-2.14-7.49-1.4-2.54.72-4.36,2.37-5.46,4.95s-1.02,6.12.26,10.62Z"/>
    <path class="cls-3" d="M408.16,77.95l6.16-.4c-.27,3.73-1.5,6.83-3.69,9.28-2.19,2.45-5.29,4.06-9.28,4.82-5.03.96-9.31.16-12.85-2.41-3.54-2.56-5.85-6.67-6.93-12.32-1.12-5.84-.49-10.66,1.87-14.45,2.36-3.79,5.92-6.15,10.66-7.05,4.6-.88,8.65-.01,12.17,2.59,3.52,2.6,5.82,6.77,6.92,12.5.07.35.16.87.27,1.58l-25.63,4.9c.94,3.77,2.57,6.49,4.88,8.15,2.31,1.66,4.9,2.22,7.77,1.67,2.14-.41,3.85-1.32,5.14-2.75,1.29-1.42,2.15-3.46,2.56-6.11ZM387.22,72.09l19.19-3.67c-.82-2.87-1.97-4.92-3.46-6.15-2.29-1.91-4.91-2.59-7.87-2.02-2.68.51-4.75,1.85-6.23,4-1.48,2.16-2.02,4.77-1.64,7.84Z"/>
    <path class="cls-3" d="M421.9,90.15l5.82.28c.42,1.76,1.22,3,2.39,3.71,1.58.96,3.63,1.31,6.17,1.05,2.73-.28,4.78-1.04,6.16-2.3,1.37-1.25,2.22-2.9,2.55-4.94.18-1.25.07-3.81-.35-7.69-2.27,3.33-5.33,5.19-9.17,5.58-4.79.48-8.67-.89-11.64-4.11-2.98-3.22-4.71-7.27-5.2-12.15-.34-3.36-.05-6.51.86-9.47.91-2.96,2.44-5.33,4.56-7.1,2.13-1.78,4.73-2.82,7.81-3.13,4.11-.42,7.67.92,10.67,4.01l-.43-4.24,5.44-.55,3.07,30.4c.55,5.48.39,9.41-.48,11.81-.87,2.4-2.44,4.38-4.7,5.94-2.26,1.57-5.14,2.53-8.63,2.88-4.15.42-7.6-.19-10.35-1.81-2.75-1.63-4.27-4.35-4.57-8.15ZM424.65,68.53c.47,4.61,1.71,7.89,3.74,9.83,2.03,1.94,4.41,2.77,7.14,2.49,2.71-.27,4.88-1.56,6.5-3.85,1.62-2.29,2.21-5.69,1.75-10.2-.44-4.31-1.71-7.46-3.82-9.45s-4.5-2.86-7.17-2.59c-2.62.27-4.74,1.57-6.36,3.91-1.62,2.34-2.21,5.63-1.78,9.87Z"/>
    <path class="cls-3" d="M459.22,84.02l-1.94-48.76,5.93-.24,1.94,48.76-5.93.23Z"/>
    <path class="cls-3" d="M473.17,41.72l-.11-6.89,5.93-.1.11,6.89-5.93.1ZM473.86,83.62l-.58-35.35,5.93-.1.58,35.35-5.93.1Z"/>
    <path class="cls-3" d="M544.05,39.11l6.35.72-3.16,28.02c-.55,4.87-1.53,8.68-2.95,11.43-1.42,2.74-3.65,4.85-6.7,6.33-3.05,1.48-6.89,1.95-11.52,1.43-4.5-.51-8.09-1.71-10.77-3.59-2.68-1.89-4.47-4.38-5.36-7.49-.89-3.1-1.04-7.22-.46-12.36l3.16-28.02,6.35.72-3.16,27.98c-.47,4.21-.44,7.36.11,9.44s1.71,3.77,3.47,5.06c1.77,1.29,4.01,2.09,6.74,2.4,4.67.53,8.12-.17,10.35-2.08,2.23-1.91,3.68-5.92,4.37-12l3.16-27.98Z"/>
    <path class="cls-3" d="M553.48,89.96l7.49-34.55,5.22,1.13-1.07,4.91c3.33-3.25,7.37-4.36,12.12-3.33,2.06.45,3.87,1.23,5.44,2.35s2.65,2.39,3.24,3.79c.59,1.4.88,2.97.86,4.72-.02,1.13-.32,3.05-.91,5.76l-4.61,21.24-5.8-1.26,4.56-21.01c.52-2.39.68-4.22.48-5.5s-.79-2.4-1.79-3.35c-1-.95-2.27-1.6-3.81-1.93-2.47-.54-4.77-.21-6.91.99-2.14,1.19-3.68,4-4.64,8.43l-4.09,18.87-5.8-1.26Z"/>
    <path class="cls-3" d="M589.34,98.35l9.62-34.02,5.71,1.61-9.62,34.02-5.71-1.61ZM600.74,58.03l1.87-6.63,5.71,1.61-1.87,6.63-5.71-1.61Z"/>
    <path class="cls-3" d="M612.28,105.38l-1.03-37.76,5.92,2.05.18,22.46c.02,2.43-.05,4.91-.21,7.46,1.11-1.59,2.54-3.47,4.28-5.63l14.4-17.84,5.76,1.99-24.07,29.08-5.23-1.81Z"/>
    <path class="cls-3" d="M660.48,112.44l5.29,3.18c-2.35,2.92-5.12,4.76-8.32,5.53-3.2.77-6.66.33-10.37-1.31-4.68-2.07-7.75-5.17-9.2-9.3s-1.02-8.82,1.31-14.07c2.41-5.44,5.66-9.05,9.76-10.82,4.1-1.78,8.36-1.69,12.78.27,4.28,1.89,7.12,4.91,8.53,9.05,1.41,4.14.93,8.88-1.43,14.22-.14.32-.37.81-.68,1.45l-23.86-10.56c-1.37,3.64-1.58,6.8-.63,9.48.95,2.68,2.76,4.61,5.44,5.79,1.99.88,3.92,1.1,5.79.67,1.87-.43,3.73-1.62,5.58-3.57ZM646.6,95.7l17.87,7.91c.96-2.83,1.18-5.17.66-7.02-.79-2.88-2.57-4.92-5.32-6.14-2.49-1.1-4.96-1.19-7.4-.25-2.44.93-4.38,2.77-5.81,5.51Z"/>
    <path class="cls-3" d="M667.23,128.47l16.54-31.24,4.72,2.5-2.51,4.74c2.38-1.58,4.26-2.45,5.66-2.62,1.39-.17,2.7.07,3.92.72,1.77.94,3.26,2.46,4.48,4.56l-4.41,3.96c-.88-1.44-1.96-2.5-3.24-3.18-1.15-.61-2.36-.8-3.64-.59-1.28.21-2.44.83-3.49,1.86-1.58,1.57-2.96,3.48-4.14,5.71l-8.66,16.36-5.24-2.77Z"/>
    <path class="cls-3" d="M689.97,128.51l5.48,2.28c-.97,2.19-1.14,4.22-.52,6.09s2.08,3.51,4.38,4.93c2.32,1.43,4.33,2.01,6.04,1.75,1.71-.26,2.96-1.04,3.75-2.32.71-1.15.77-2.36.19-3.64-.41-.88-1.78-2.52-4.09-4.91-3.12-3.23-5.18-5.63-6.19-7.2-1-1.57-1.5-3.19-1.49-4.87.01-1.67.47-3.25,1.38-4.72.83-1.34,1.9-2.4,3.21-3.16,1.31-.77,2.72-1.21,4.24-1.32,1.15-.1,2.52.06,4.13.49,1.61.43,3.18,1.12,4.74,2.08,2.34,1.44,4.18,3.05,5.53,4.82,1.35,1.77,2.08,3.49,2.21,5.18.12,1.68-.25,3.59-1.13,5.73l-5.36-2.36c.73-1.69.83-3.3.29-4.83-.54-1.53-1.79-2.9-3.75-4.11-2.32-1.43-4.21-2.06-5.68-1.9-1.47.16-2.52.76-3.16,1.8-.41.66-.57,1.38-.48,2.17.07.8.44,1.65,1.1,2.55.39.5,1.61,1.85,3.66,4.05,2.98,3.17,4.98,5.49,6.02,6.97s1.59,3.06,1.67,4.73c.08,1.67-.41,3.37-1.48,5.11-1.05,1.7-2.53,3-4.43,3.89-1.91.9-4.04,1.19-6.4.87-2.36-.32-4.71-1.2-7.04-2.64-3.87-2.39-6.32-5.02-7.35-7.89-1.03-2.88-.84-6.08.57-9.62Z"/>
    <path class="cls-3" d="M714.34,156.52l20.22-28.99,4.86,3.39-20.22,28.99-4.87-3.39ZM738.32,122.15l3.94-5.65,4.86,3.39-3.94,5.65-4.86-3.39Z"/>
    <path class="cls-3" d="M739.74,168.48l-2.51,4.74c-1.54-.73-2.84-1.48-3.89-2.28-1.72-1.3-2.84-2.58-3.37-3.85-.53-1.26-.65-2.49-.36-3.67s1.52-3.21,3.69-6.08l12.28-16.21-3.47-2.63,2.81-3.72,3.47,2.63,5.29-6.98,6.87.69-7.46,9.84,4.75,3.6-2.81,3.71-4.75-3.6-12.48,16.48c-1.03,1.36-1.61,2.3-1.74,2.82-.13.52-.09,1.03.11,1.55.2.52.65,1.04,1.35,1.57.53.4,1.26.86,2.22,1.39Z"/>
    <path class="cls-3" d="M760.66,187.4c-2.9-.01-5.37-.39-7.41-1.13s-3.95-1.87-5.71-3.4c-2.91-2.51-4.52-5.17-4.84-7.95-.32-2.79.48-5.29,2.42-7.53,1.13-1.31,2.46-2.25,3.99-2.82,1.53-.57,3.05-.77,4.57-.6,1.52.17,3.03.61,4.51,1.31,1.08.53,2.61,1.45,4.58,2.77,4,2.7,7.12,4.48,9.35,5.36.55-.61.9-.99,1.05-1.16,1.6-1.85,2.3-3.51,2.1-5-.26-2.01-1.52-4-3.78-5.95-2.11-1.82-3.99-2.8-5.64-2.92-1.65-.12-3.54.56-5.66,2.04l-3.86-4.4c2.04-1.55,4.02-2.52,5.94-2.89,1.92-.38,4.02-.13,6.29.73,2.27.86,4.55,2.28,6.82,4.25,2.26,1.95,3.86,3.81,4.81,5.57.95,1.76,1.4,3.33,1.36,4.72-.04,1.39-.46,2.82-1.27,4.29-.52.9-1.65,2.36-3.39,4.37l-5.23,6.04c-3.64,4.21-5.85,6.96-6.63,8.24s-1.32,2.68-1.64,4.19l-4.69-4.05c.35-1.34,1-2.7,1.96-4.07ZM769.04,176.95c-2.21-.74-5.15-2.28-8.81-4.62-2.08-1.33-3.64-2.15-4.7-2.48s-2.07-.34-3.04-.06c-.97.29-1.8.83-2.48,1.61-1.04,1.21-1.46,2.61-1.25,4.2.21,1.59,1.19,3.14,2.93,4.65,1.73,1.49,3.59,2.44,5.6,2.84,2.01.4,3.9.21,5.68-.57,1.37-.61,2.92-1.91,4.64-3.91l1.44-1.66Z"/>
    <path class="cls-3" d="M767.91,200.13l24.91-25.08,3.79,3.76-3.78,3.8c2.73-.82,4.79-1.11,6.17-.86,1.38.25,2.56.86,3.54,1.83,1.42,1.41,2.41,3.3,2.96,5.67l-5.37,2.5c-.42-1.64-1.14-2.96-2.17-3.99-.92-.91-2.02-1.45-3.31-1.62-1.29-.17-2.58.09-3.88.77-1.97,1.05-3.84,2.47-5.63,4.26l-13.04,13.13-4.21-4.18Z"/>
    <path class="cls-3" d="M783.36,215.86l25.97-23.99,4.02,4.36-25.97,23.99-4.02-4.36ZM814.15,187.42l5.06-4.68,4.02,4.36-5.06,4.68-4.02-4.36Z"/>
  </g>
  <path class="cls-1" d="M907.21,424.43c-2.16-14.82-5.05-29.49-8.76-44.01-9.69-37.89-24.33-73.79-43.96-107.69-8.83-15.25-18.52-29.82-29.04-43.75-2.76,1.95-5.45,3.99-8.05,6.14,52.51,69.56,83.73,155.88,84.1,249.46.72,232.07-188.84,420.79-423.31,420.35-231.61-.44-420.65-186.27-421.42-417.57-.31-93.71,30.48-180.49,82.84-250.58-2.66-2.07-5.28-4.17-7.87-6.32-17.22,22.96-32.02,47.48-44.38,73.57-12.7,26.81-22.45,54.65-29.29,83.49-3.37,14.18-6,28.5-7.84,42.96-1.02,7.98-1.75,15.99-2.45,24-.96,10.98-.66,22.01-1.56,32.98-.13,1.64.46,3.17.48,4.78.17,9.73.57,19.45,1.38,29.16,1.09,13.08,2.76,26.07,5.02,39,3.61,20.64,8.76,40.9,15.4,60.78,12.72,38.05,30.51,73.62,53.32,106.7,16.68,24.2,35.65,46.49,56.95,66.83,8.6,8.21,17.48,16.11,26.72,23.59,31.31,25.35,65.5,46.02,102.63,61.89,26.15,11.17,53.15,19.69,81.02,25.51,13.9,2.9,27.9,5.15,42.02,6.67,10,1.08,20.02,1.87,30.08,2.24,2.58.09,5.18-.13,7.73.43l30.69-.11c.29-.75.95-.45,1.46-.48,12.4-.65,24.74-1.79,37.05-3.45,15.45-2.07,30.73-4.97,45.85-8.71,32.64-8.08,63.9-19.77,93.78-35.14,22.1-11.36,43.06-24.51,62.87-39.44,21.19-15.97,40.7-33.75,58.61-53.27,14.94-16.28,28.54-33.61,40.79-51.96,11.03-16.53,20.86-33.74,29.48-51.63,13.49-27.97,23.77-57.06,30.86-87.25,3.33-14.19,5.92-28.51,7.75-42.96,1.23-9.74,2.1-19.51,2.75-29.3.43-6.51.45-13.03.45-19.54,0-9.66.09-19.33-.35-28.98-.58-12.86-1.93-25.66-3.79-38.4Z"/>
</svg>